<?xml version="1.0" standalone="no"?>
<!DOCTYPE svg PUBLIC "-//W3C//DTD SVG 20010904//EN"
 "http://www.w3.org/TR/2001/REC-SVG-20010904/DTD/svg10.dtd">
<svg version="1.0" xmlns="http://www.w3.org/2000/svg"
 width="300.000000pt" height="375.000000pt" viewBox="0 0 300.000000 375.000000"
 preserveAspectRatio="xMidYMid meet">
<metadata>
Created by potrace 1.10, written by Peter Selinger 2001-2011
</metadata>
<g transform="translate(0.000000,375.000000) scale(0.100000,-0.100000)"
fill="#000000" stroke="none">
<path d="M1476 3412 c-3 -6 -23 -13 -43 -17 -21 -4 -42 -10 -48 -14 -5 -4 -26
-14 -45 -21 -69 -26 -214 -140 -256 -202 -30 -43 -60 -118 -75 -188 -8 -41 -2
-130 17 -252 6 -36 5 -38 -20 -38 -52 0 -62 -96 -28 -249 12 -52 22 -107 22
-122 0 -38 24 -56 60 -42 l27 10 7 -73 c4 -40 12 -87 18 -105 6 -18 7 -34 2
-38 -5 -3 -29 -32 -52 -63 -44 -58 -108 -107 -211 -164 -31 -17 -93 -52 -138
-78 -46 -26 -128 -67 -183 -92 -245 -108 -338 -165 -374 -227 -35 -61 -41 -96
-41 -262 -1 -125 -4 -160 -22 -210 -48 -137 -83 -313 -82 -410 l0 -30 11 25
c12 30 14 40 23 110 10 75 61 274 87 335 18 44 20 63 15 164 -10 199 22 290
117 324 10 4 16 13 13 21 -4 10 6 16 33 20 21 3 40 10 42 15 4 11 194 102 284
135 39 15 86 38 105 52 37 28 129 77 129 70 0 -3 12 6 28 21 15 14 43 33 63
43 47 25 152 130 169 169 7 17 16 28 21 26 7 -5 4 30 -6 65 -3 8 -7 33 -10 55
-3 22 -13 62 -22 89 -12 39 -14 73 -9 170 4 66 9 134 12 149 5 26 4 27 -13 17
-16 -11 -18 -25 -15 -155 3 -127 1 -143 -14 -149 -23 -9 -47 16 -50 51 -2 16
-6 39 -11 53 -4 14 -7 61 -7 105 1 61 -1 74 -9 52 -10 -32 -27 -27 -27 8 0 28
20 75 32 75 4 0 8 7 8 15 0 23 18 18 47 -12 21 -23 24 -24 14 -6 -6 12 -11 40
-11 62 0 22 -5 52 -10 66 -6 15 -11 70 -12 123 -2 87 1 103 25 156 15 32 27
63 27 68 0 17 37 58 45 50 5 -4 5 -2 2 4 -10 18 84 93 156 125 15 7 27 16 27
21 0 4 9 8 19 8 11 0 27 7 35 16 9 8 40 18 69 20 28 3 70 7 92 10 22 3 51 5
65 5 42 1 168 -27 184 -40 8 -7 27 -11 43 -9 27 3 26 4 -22 29 -60 31 -110 45
-100 29 4 -6 -11 -2 -33 9 -31 16 -55 20 -104 17 -35 -2 -68 1 -75 6 -7 5 -13
5 -17 0z"/>
<path d="M1575 3340 c-3 -5 -25 -10 -48 -10 -50 0 -135 -24 -120 -33 6 -4 44
-2 85 5 40 6 97 11 125 10 29 0 55 3 58 8 7 11 -39 22 -59 14 -9 -3 -16 -1
-16 5 0 14 -17 14 -25 1z"/>
<path d="M1870 3284 c0 -10 -7 -13 -24 -8 -26 6 -44 -10 -25 -22 8 -4 9 -3 5
5 -6 8 0 10 18 5 14 -3 42 -3 62 0 28 6 33 10 25 20 -15 18 -61 17 -61 0z"/>
<path d="M1984 3279 c-3 -6 6 -23 20 -38 14 -15 26 -30 26 -34 0 -4 9 -16 20
-27 17 -17 20 -17 20 -4 0 25 -32 73 -53 80 -11 3 -16 12 -13 20 6 16 -10 19
-20 3z"/>
<path d="M1253 3233 c-7 -2 -13 -11 -13 -19 0 -8 -7 -14 -15 -14 -8 0 -15 -5
-15 -11 0 -5 -4 -7 -10 -4 -5 3 -10 2 -10 -4 0 -6 -7 -8 -15 -5 -8 4 -15 1
-15 -5 0 -15 52 -10 70 8 12 11 43 63 37 60 -1 0 -8 -3 -14 -6z"/>
<path d="M2109 3148 c0 -24 -3 -37 -6 -30 -2 6 -9 10 -14 6 -5 -3 -3 -15 6
-27 8 -12 15 -29 15 -39 0 -10 5 -18 11 -18 6 0 8 -9 4 -21 -5 -14 -3 -19 3
-15 6 4 10 -2 9 -14 -1 -11 -5 -20 -10 -20 -5 0 -1 -7 8 -16 12 -12 13 -19 4
-30 -6 -8 -16 -11 -21 -7 -6 3 -8 0 -6 -8 3 -8 1 -27 -4 -44 -6 -16 -9 -54 -8
-82 1 -65 -16 -69 -31 -8 -8 33 -16 45 -30 45 -23 0 -24 3 3 -67 40 -106 29
-388 -21 -503 -8 -19 -15 -52 -16 -74 -1 -21 -7 -41 -12 -45 -5 -3 -13 -20
-16 -38 -6 -29 -40 -81 -103 -155 -12 -16 -30 -28 -40 -28 -13 0 -14 -3 -5
-14 10 -11 8 -16 -8 -21 -12 -3 -21 -11 -21 -17 0 -6 -10 -8 -23 -4 -21 5 -24
2 -24 -24 0 -17 2 -30 5 -30 2 0 26 16 52 35 26 19 51 35 54 35 21 0 -83 -147
-147 -209 -29 -27 -40 -32 -65 -27 -16 4 -42 20 -58 35 -16 15 -43 35 -60 44
-44 23 -62 46 -44 57 10 6 6 10 -16 16 -16 4 -55 24 -88 45 -32 22 -60 39 -62
39 -2 0 -42 39 -89 87 -47 47 -85 82 -85 77 0 -18 86 -121 146 -176 33 -30
103 -83 155 -118 52 -34 103 -70 114 -80 30 -26 81 -50 107 -50 51 0 190 178
208 266 26 123 48 4 57 -303 4 -143 3 -213 -4 -213 -7 0 -7 -16 -2 -47 5 -26
14 -151 19 -277 8 -200 8 -231 -5 -239 -8 -4 -15 -15 -15 -23 0 -8 5 -12 10
-9 6 4 7 11 4 17 -4 7 -2 8 4 4 15 -9 15 -39 0 -54 -9 -9 -9 -12 0 -12 9 0 12
-16 9 -55 -3 -35 -1 -52 6 -48 7 4 8 -9 3 -38 -4 -24 -13 -47 -21 -52 -8 -4
-42 -50 -76 -102 -34 -52 -64 -95 -67 -95 -2 0 -2 11 0 25 3 14 2 25 -3 25
-17 0 -21 43 -5 52 9 5 16 15 16 22 0 8 7 16 15 20 8 3 15 10 15 17 0 6 13 28
28 48 33 41 87 149 80 157 -7 6 -61 -86 -61 -103 0 -7 -4 -10 -8 -7 -11 6 -30
-31 -21 -42 4 -5 -1 -2 -11 5 -16 13 -16 16 -2 37 9 13 12 24 8 24 -5 0 0 5
10 11 10 6 22 20 28 32 5 12 18 36 28 52 22 34 25 45 12 45 -5 0 -29 -33 -54
-72 -73 -119 -112 -177 -119 -177 -15 -2 -8 29 13 53 12 14 27 34 33 45 6 10
32 53 58 94 25 41 44 78 41 81 -4 3 -2 6 4 6 18 0 35 54 25 81 -5 13 -7 30 -5
37 3 6 -2 12 -11 12 -10 0 -16 -9 -16 -21 0 -11 -9 -34 -21 -50 -11 -16 -17
-29 -14 -29 4 0 0 -6 -8 -14 -8 -8 -40 -53 -71 -100 -32 -47 -60 -86 -62 -86
-12 0 3 46 19 58 9 7 17 18 17 24 0 5 14 27 30 48 16 21 30 41 30 44 0 4 11
24 25 46 14 22 23 40 21 40 -3 0 6 12 20 27 27 29 30 80 5 75 -9 -2 -12 4 -8
20 3 13 0 34 -7 47 l-13 23 -22 -36 c-27 -43 -17 -71 10 -29 17 26 19 26 19 6
0 -12 -7 -28 -15 -37 -8 -8 -15 -18 -15 -23 0 -8 -110 -177 -130 -200 -5 -7
-10 -18 -10 -24 0 -19 -13 -2 -25 36 -12 32 -10 37 26 91 21 31 36 61 32 68
-3 6 -2 8 2 3 8 -7 95 115 95 133 0 5 7 13 17 18 11 7 14 15 9 28 -8 18 -8 18
-19 0 -7 -10 -42 -64 -78 -120 -36 -55 -74 -116 -84 -135 -12 -25 -19 -30 -25
-21 -8 13 39 98 76 141 8 8 14 19 14 23 0 5 14 25 30 46 17 21 30 43 30 49 0
7 7 14 15 17 8 4 13 10 10 14 -3 5 -1 11 5 15 13 8 13 45 0 45 -5 0 -10 -5
-10 -10 0 -6 -16 -35 -35 -65 -23 -36 -39 -53 -49 -49 -13 5 -12 8 0 22 52 58
85 115 82 140 -3 27 -3 27 -21 -10 -10 -21 -18 -41 -19 -45 -1 -5 -10 -17 -21
-28 -24 -26 -87 -130 -87 -144 0 -6 -4 -11 -8 -11 -4 0 -16 -14 -27 -32 -22
-37 -31 -25 -14 18 7 16 12 32 11 36 -1 5 2 8 6 8 10 0 90 116 128 185 9 17
22 37 29 45 8 9 10 23 5 35 -7 18 -9 17 -19 -10 -7 -16 -27 -50 -45 -75 -33
-47 -50 -80 -48 -93 1 -4 -2 -7 -7 -7 -12 0 -74 -98 -74 -117 0 -12 -3 -12
-14 3 -13 17 -14 16 -7 -11 12 -52 52 -177 78 -248 14 -37 35 -100 45 -140 11
-39 35 -124 55 -187 40 -132 74 -254 82 -290 3 -13 9 -29 14 -35 4 -5 10 -19
13 -30 10 -43 7 23 -4 75 -10 48 -10 51 20 89 17 21 28 41 24 45 -3 3 -1 6 6
6 15 0 4 -43 -22 -88 l-20 -35 21 12 c26 14 28 4 7 -35 -13 -26 -13 -29 0 -32
18 -4 19 -16 5 -43 -6 -10 -7 -19 -2 -19 15 0 32 43 36 95 3 28 9 90 14 140 6
50 10 97 11 105 0 8 5 44 11 80 13 83 13 344 1 348 -6 2 -7 10 -4 18 3 7 9 12
13 9 23 -14 22 375 -1 540 -5 38 -12 135 -14 215 -3 80 -7 171 -10 203 -3 31
-3 57 1 57 4 0 19 -10 32 -22 25 -22 25 -21 6 27 -6 14 7 8 45 -23 53 -41 63
-46 89 -43 8 1 21 -4 30 -12 23 -20 173 -89 242 -112 30 -10 64 -21 75 -26 11
-4 44 -15 73 -24 28 -9 52 -21 52 -27 0 -6 3 -8 6 -5 12 11 66 -35 76 -64 5
-16 13 -27 17 -24 10 5 43 -94 75 -220 13 -55 47 -188 74 -295 57 -220 80
-326 92 -419 5 -35 16 -71 24 -79 15 -15 16 -15 16 4 0 88 -168 810 -230 988
-34 99 -80 134 -254 195 -108 38 -381 154 -431 184 -11 6 -39 21 -63 32 -54
27 -111 105 -84 117 11 5 57 68 75 104 38 74 74 278 81 461 3 76 9 93 32 93 8
0 12 -5 9 -10 -3 -6 -3 -20 1 -32 6 -19 7 -20 16 -4 7 12 5 28 -7 53 -23 47
-13 215 15 250 9 12 20 20 22 17 8 -8 7 50 -2 61 -33 46 -59 177 -39 201 9 11
9 14 0 14 -7 0 -9 5 -6 10 3 6 1 10 -4 10 -6 0 -11 -19 -12 -42z m-125 -2085
c3 -132 2 -233 -3 -233 -4 0 -9 64 -11 143 -1 78 -5 195 -8 260 -4 65 -5 121
-2 124 11 11 18 -74 24 -294z m-244 -32 c0 -5 -20 -40 -45 -78 -25 -37 -45
-75 -45 -82 0 -12 -3 -12 -12 -3 -14 14 0 48 41 101 15 20 31 44 34 54 7 18
27 24 27 8z m150 -85 c0 -19 -37 -63 -46 -54 -4 4 -1 14 5 22 7 8 9 21 5 27
-4 8 -3 9 4 5 7 -4 12 -2 12 3 0 6 5 11 10 11 6 0 10 -6 10 -14z m-49 -85 c-6
-10 -7 -22 -3 -26 4 -5 2 -5 -5 -1 -7 3 -14 -2 -18 -14 -3 -11 -10 -20 -15
-20 -10 0 -25 -40 -21 -55 1 -5 -1 -7 -5 -2 -4 4 -18 -11 -31 -33 -23 -38 -43
-52 -43 -30 0 6 18 35 40 65 22 30 40 59 40 64 0 6 9 15 21 21 11 7 18 14 15
17 -7 7 13 33 26 33 5 0 4 -8 -1 -19z m79 -21 c0 -11 -8 -28 -17 -38 -18 -18
-25 -36 -26 -59 0 -7 -4 -10 -8 -7 -8 4 -25 -35 -21 -49 1 -5 -2 -6 -7 -2 -12
7 -33 -29 -23 -40 4 -5 2 -5 -5 -1 -11 6 -30 -29 -25 -47 1 -5 -2 -6 -7 -3 -9
6 -26 -22 -23 -36 4 -15 -16 -8 -22 8 -4 10 1 25 10 35 10 11 15 19 12 19 -4
0 8 15 24 32 17 18 34 42 40 53 12 28 29 55 56 93 13 17 21 36 18 41 -5 8 2
14 22 20 1 1 2 -8 2 -19z m-80 -298 c0 -5 -9 -19 -20 -32 -18 -21 -24 -34 -22
-52 1 -3 -5 -9 -13 -12 -8 -3 -16 -1 -16 4 -1 6 -2 15 -3 21 0 6 13 27 29 45
30 33 45 42 45 26z m106 -79 c-8 -15 -40 -64 -70 -108 -48 -68 -56 -76 -56
-52 0 15 5 27 10 27 6 0 14 8 17 18 4 9 17 31 31 49 14 19 21 37 16 45 -4 7
-4 10 1 6 11 -11 38 29 29 44 -4 6 -3 8 3 5 6 -4 14 1 18 11 7 16 8 16 12 0 2
-9 -2 -29 -11 -45z m4 -48 c0 -26 -49 -112 -87 -153 -7 -7 -13 -23 -13 -35 0
-17 7 -12 35 27 19 26 36 53 38 60 2 6 8 8 12 4 9 -9 -8 -45 -49 -106 l-29
-43 -14 41 c-10 29 -11 45 -4 54 6 7 8 16 4 19 -3 4 -1 7 6 7 11 0 54 62 51
75 0 3 6 13 15 21 8 9 15 22 15 30 0 8 5 14 10 14 6 0 10 -7 10 -15z"/>
<path d="M1438 3104 c-27 -8 -48 -17 -48 -19 0 -12 70 -4 83 10 8 8 18 11 22
7 5 -4 5 -1 1 6 -4 6 -8 12 -9 11 -1 0 -23 -7 -49 -15z"/>
<path d="M2036 2915 c8 -57 12 -65 24 -45 5 8 4 22 -2 34 -6 12 -10 21 -8 21
2 0 -2 9 -8 20 -10 17 -11 12 -6 -30z"/>
<path d="M1299 2717 c-37 -25 -103 -106 -94 -116 4 -3 12 2 19 12 7 9 18 17
25 17 6 0 11 4 11 9 0 11 56 30 85 29 11 0 36 0 55 1 30 1 32 3 17 12 -10 6
-24 8 -31 6 -7 -3 -19 -1 -27 4 -10 6 -3 9 23 9 20 0 45 3 55 6 12 4 14 3 5
-3 -15 -11 6 -32 51 -51 24 -10 27 -10 27 9 0 12 4 18 11 13 7 -4 10 -1 7 7
-8 26 -70 49 -121 46 -26 -2 -50 0 -53 4 -9 15 -29 10 -65 -14z"/>
<path d="M1812 2714 c-11 -7 -22 -10 -26 -7 -3 3 -6 0 -6 -8 0 -26 -20 -39
-40 -27 -24 16 -47 4 -45 -23 2 -28 35 -36 35 -8 0 10 5 19 11 19 6 0 8 -7 5
-16 -4 -10 -2 -13 7 -7 6 4 17 8 23 9 6 1 30 14 54 29 35 22 46 25 64 16 11
-6 14 -10 6 -9 -19 2 -50 -12 -50 -22 0 -4 25 -6 55 -5 49 1 59 -2 86 -28 17
-16 33 -26 36 -24 15 16 -76 125 -95 113 -5 -3 -30 -2 -56 3 -33 6 -50 5 -64
-5z"/>
<path d="M1550 2681 c0 -5 6 -12 13 -14 7 -3 5 -6 -5 -6 -10 -1 -18 -5 -18
-11 0 -5 3 -9 8 -9 4 1 16 1 27 -1 20 -1 20 -1 0 -10 -13 -6 -15 -9 -5 -9 8 0
21 3 29 8 12 8 12 13 -3 35 -16 25 -46 36 -46 17z"/>
<path d="M1376 2615 c-83 -15 -113 -41 -71 -62 14 -8 25 -18 25 -23 0 -6 4
-10 10 -10 5 0 6 8 3 17 -5 13 -2 15 11 10 11 -4 15 -3 11 4 -4 6 -13 8 -20 5
-23 -8 -24 18 -1 30 17 10 22 9 31 -9 6 -12 18 -23 27 -25 18 -4 51 26 43 39
-10 15 7 10 27 -8 10 -9 21 -14 24 -11 3 4 -8 14 -25 24 -21 13 -27 20 -18 26
15 9 10 9 -77 -7z"/>
<path d="M1489 2597 c18 -20 21 -28 10 -31 -8 -2 -21 -7 -29 -9 -8 -3 -3 -6
13 -6 15 -1 27 4 27 11 0 9 3 9 13 -1 10 -10 4 -19 -27 -48 -21 -19 -34 -34
-30 -31 47 21 63 34 73 55 10 21 8 27 -11 44 -13 11 -32 24 -43 31 -17 9 -16
6 4 -15z"/>
<path d="M1775 2595 c-27 -22 -28 -24 -9 -25 11 0 25 5 32 12 9 9 12 8 12 -4
0 -9 7 -24 16 -32 20 -20 54 -5 54 24 0 24 8 25 38 4 25 -17 21 -34 -9 -34
-10 0 -19 -4 -19 -9 0 -17 19 -22 38 -12 13 7 23 6 31 -2 9 -9 11 -3 9 27 -2
28 -10 43 -28 55 -18 12 -22 13 -15 2 6 -11 4 -13 -11 -6 -10 4 -37 9 -59 9
-22 1 -42 4 -45 8 -3 4 -19 -4 -35 -17z"/>
<path d="M1750 2549 c0 -5 6 -9 14 -9 7 0 19 -7 26 -15 7 -8 18 -15 24 -14 7
0 6 2 -1 6 -7 2 -13 11 -13 18 0 7 -11 15 -25 17 -14 3 -25 1 -25 -3z"/>
<path d="M2099 2435 c-1 -28 -3 -59 -5 -70 -2 -11 -5 -36 -8 -55 -2 -19 -5
-35 -6 -35 -1 0 -3 -11 -6 -24 -4 -20 -2 -22 11 -11 8 7 15 28 15 47 0 19 5
66 11 105 8 51 8 73 0 81 -8 8 -11 -3 -12 -38z"/>
<path d="M1578 2438 c-12 -18 -14 -29 -7 -34 16 -10 31 11 27 37 l-3 23 -17
-26z"/>
<path d="M1486 2389 c-32 -37 -33 -53 -4 -73 32 -22 45 -20 23 4 -15 17 -16
24 -7 45 6 14 16 25 21 25 5 0 11 7 15 15 10 27 -21 16 -48 -16z"/>
<path d="M1710 2398 c0 -5 6 -8 12 -6 7 3 21 -5 30 -16 18 -21 18 -21 9 4 -8
24 -51 39 -51 18z"/>
<path d="M1536 2343 c-8 -8 69 -42 97 -42 10 -1 15 4 12 9 -4 6 -10 8 -14 5
-5 -2 -16 4 -26 15 -18 20 -55 27 -69 13z"/>
<path d="M1671 2326 c-9 -11 -7 -12 13 -9 13 3 33 0 45 -6 23 -13 28 -2 9 17
-16 16 -53 15 -67 -2z"/>
<path d="M1554 2285 c-30 -20 -104 -44 -104 -34 0 13 -51 -15 -74 -39 -10 -12
-16 -27 -13 -34 2 -7 -2 -33 -9 -58 -17 -54 -16 -53 -4 -45 5 3 19 25 29 48
l19 41 74 2 c40 1 77 -1 81 -3 13 -8 197 -9 197 -2 0 4 -15 10 -34 13 -46 9
-262 9 -276 1 -8 -5 -11 1 -8 15 4 28 17 31 138 30 128 -2 147 -4 156 -12 4
-5 17 -8 29 -8 21 0 45 -17 45 -32 0 -4 -7 -8 -15 -8 -9 0 -20 -11 -25 -25 -5
-14 -12 -25 -15 -25 -4 0 -3 6 1 13 5 9 4 9 -5 1 -6 -6 -13 -20 -16 -32 -3
-19 -1 -21 15 -12 11 6 27 24 35 41 9 17 21 29 28 26 18 -6 31 -98 15 -108
-10 -6 -8 -12 7 -23 24 -18 35 -20 35 -5 0 5 -4 8 -9 5 -15 -10 -18 16 -9 59
25 109 9 150 -65 162 -21 3 -52 17 -69 31 -29 24 -31 25 -43 8 -7 -9 -17 -17
-21 -16 -5 1 -11 -7 -15 -17 -7 -16 -8 -15 -8 5 -1 23 -15 30 -26 12 -12 -20
-25 -9 -19 15 7 29 5 30 -22 10z"/>
<path d="M1506 2121 c-7 -11 83 -41 121 -41 25 0 93 25 93 34 0 3 -15 3 -32 0
-61 -10 -123 -12 -128 -4 -9 13 -48 21 -54 11z"/>
<path d="M1431 2049 c7 -15 14 -18 18 -10 5 7 12 3 21 -14 8 -16 22 -25 37
-25 14 0 23 -6 23 -15 0 -10 10 -15 34 -15 19 0 37 -6 39 -12 3 -8 6 -7 6 4 1
12 9 16 29 16 29 -1 93 31 100 50 2 8 -13 7 -50 -4 -57 -18 -170 -14 -176 5
-2 6 -11 11 -20 11 -9 0 -26 7 -36 15 -28 21 -39 18 -25 -6z"/>
<path d="M1125 1999 c-11 -30 83 -267 145 -364 34 -54 124 -237 149 -305 23
-62 81 -154 81 -129 0 9 -25 77 -55 150 -52 125 -77 176 -201 404 -27 50 -63
128 -81 175 -20 55 -34 79 -38 69z"/>
<path d="M1784 1931 c3 -4 -3 -16 -14 -26 -22 -20 -27 -39 -7 -32 6 2 12 10
12 18 0 8 8 13 18 13 19 -2 19 -2 11 20 -3 9 -10 16 -16 16 -5 0 -7 -4 -4 -9z"/>
<path d="M1715 1837 c-6 -7 -18 -23 -28 -37 -9 -13 -17 -18 -17 -11 0 8 -3 11
-7 8 -3 -4 -12 -2 -20 4 -10 9 -13 8 -13 -1 0 -10 -3 -10 -14 -1 -11 9 -15 9
-19 -1 -4 -10 -8 -10 -17 2 -9 13 -10 12 -8 -4 2 -10 -3 -21 -11 -24 -8 -3
-11 0 -7 7 11 18 -3 34 -19 21 -10 -8 -15 -6 -20 9 -3 12 -11 21 -17 21 -6 0
-4 -10 5 -22 8 -13 20 -22 26 -20 6 1 11 -5 11 -13 0 -18 40 -20 40 -2 0 7 4
6 10 -4 11 -19 59 -17 111 5 27 11 34 20 35 45 2 33 -4 38 -21 18z"/>
<path d="M1706 1575 c-4 -11 -21 -15 -64 -15 -52 0 -62 -3 -87 -30 l-28 -30
36 -15 c20 -8 37 -21 37 -27 0 -9 3 -9 12 0 9 9 8 15 -8 26 -14 11 -16 18 -7
26 8 9 13 7 18 -9 8 -26 16 -26 41 -2 29 26 63 43 74 36 6 -3 10 -1 10 5 0 6
5 8 11 5 6 -4 -1 -16 -17 -30 -15 -13 -31 -22 -36 -19 -4 3 -8 0 -8 -6 0 -7
-7 -9 -16 -6 -12 4 -14 1 -9 -14 7 -22 -5 -26 -23 -8 -8 8 -12 8 -12 1 0 -6 6
-16 14 -22 11 -9 18 -6 35 15 12 15 21 23 21 18 0 -5 4 -4 8 2 4 6 18 14 32
18 23 6 24 6 5 -6 -11 -7 -20 -20 -20 -28 0 -8 -10 -19 -22 -25 -26 -11 -31
-35 -8 -35 8 0 15 -3 15 -6 0 -14 -52 -113 -65 -124 -8 -7 -12 -16 -9 -21 3
-5 1 -9 -5 -9 -6 0 -13 -11 -17 -25 -3 -14 -10 -22 -15 -19 -13 8 -11 44 2 44
6 0 9 6 6 13 -3 7 4 19 15 26 11 7 17 19 14 27 -3 8 -1 14 4 14 13 0 42 59 37
74 -5 12 -99 66 -150 85 -36 14 -36 -6 1 -21 83 -35 132 -62 132 -74 0 -17
-12 -18 -29 -1 -11 10 -13 10 -7 0 4 -7 3 -13 -3 -13 -5 0 -13 -9 -16 -20 -7
-23 -35 -27 -35 -6 0 7 10 21 23 30 22 15 22 16 2 28 -11 7 -41 22 -67 34
l-46 22 -22 -23 -22 -24 32 -40 c25 -31 33 -51 35 -88 1 -30 7 -47 14 -46 6 2
11 -4 11 -12 0 -8 9 -15 20 -15 11 0 20 4 20 10 0 5 -5 9 -12 7 -6 -1 -16 8
-23 20 -13 25 -8 93 7 93 6 0 7 -7 4 -16 -5 -12 -1 -14 16 -8 22 7 22 6 4 -20
-9 -15 -16 -35 -14 -44 2 -12 8 -6 21 18 23 47 54 86 62 78 4 -4 -7 -27 -24
-52 -17 -24 -31 -53 -31 -63 0 -11 -5 -24 -12 -31 -9 -9 -8 -12 5 -12 9 0 16
-3 15 -7 -2 -5 1 -10 7 -12 9 -3 35 32 54 76 13 27 31 39 31 18 0 -16 -25 -59
-47 -83 -7 -7 -13 -18 -13 -23 0 -20 -2 -24 -16 -32 -8 -4 -14 -15 -14 -24 0
-14 2 -14 20 2 11 10 20 22 20 27 0 16 52 78 61 73 4 -3 -14 -40 -42 -83 -27
-42 -49 -84 -49 -92 1 -12 4 -11 15 4 8 10 12 23 9 27 -3 5 -1 9 5 9 11 0 111
148 137 203 16 33 16 36 -2 61 -22 29 -34 33 -34 11 0 -9 -7 -18 -15 -21 -9
-4 -14 -13 -13 -22 2 -8 -3 -17 -11 -20 -10 -3 -12 0 -7 14 4 11 8 23 9 29 2
10 13 26 35 50 6 7 12 22 12 32 1 10 9 33 19 52 l18 34 27 -36 c24 -32 85 -77
104 -77 3 0 -12 19 -34 43 -22 23 -64 70 -93 105 -56 65 -65 71 -75 47z m-122
-196 c-12 -4 -26 0 -36 9 -10 8 -18 12 -18 8 0 -4 -5 -4 -10 -1 -6 4 -8 10 -5
15 3 5 24 1 46 -8 34 -13 38 -17 23 -23z m-66 -4 c23 -15 30 -25 20 -25 -17 0
-81 49 -65 50 4 0 25 -11 45 -25z m231 -89 c-7 -20 -16 -36 -20 -36 -4 0 -9
-9 -12 -20 -5 -21 -27 -28 -27 -8 0 6 11 26 26 45 14 19 20 33 13 33 -7 0 -4
6 7 14 26 19 28 14 13 -28z"/>
<path d="M1789 943 c-13 -21 -27 -39 -31 -41 -4 -2 -8 -8 -8 -14 0 -5 -13 -28
-28 -51 -32 -48 -45 -77 -33 -77 6 0 50 59 86 118 6 9 17 22 25 29 8 7 11 13
6 13 -5 0 -1 9 9 20 13 14 15 24 8 31 -7 7 -18 -1 -34 -28z"/>
<path d="M1365 795 c15 -27 32 -54 38 -60 6 -5 -2 13 -18 40 -15 28 -32 55
-38 60 -6 6 2 -12 18 -40z"/>
<path d="M1510 535 c23 -44 47 -84 53 -90 5 -5 -9 26 -33 70 -24 44 -47 85
-53 90 -6 6 9 -26 33 -70z"/>
<path d="M1867 499 c-64 -95 -78 -129 -42 -99 9 7 13 15 10 18 -3 3 4 12 16
20 11 8 18 20 16 26 -3 7 4 18 14 25 11 6 17 16 14 21 -3 6 -2 10 3 10 9 0 52
63 52 76 0 19 -25 -11 -83 -97z"/>
<path d="M1570 428 c0 -4 44 -96 98 -205 54 -109 101 -205 104 -213 3 -8 8
-12 12 -8 4 3 -42 102 -103 220 -61 117 -111 210 -111 206z"/>
</g>
</svg>
